<svg id="Capa_1" enable-background="new 0 0 511.998 511.998" height="512" viewBox="0 0 511.998 511.998" width="512" xmlns="http://www.w3.org/2000/svg"><path d="m255.998 438.331c-85.777 0-155.56-69.784-155.56-155.561s69.784-155.561 155.56-155.561 155.56 69.784 155.56 155.561-69.783 155.561-155.56 155.561zm0-296.122c-77.505 0-140.56 63.055-140.56 140.561s63.055 140.561 140.56 140.561 140.56-63.055 140.56-140.561-63.055-140.561-140.56-140.561z"/><path d="m255.998 465.269c-100.63 0-182.499-81.869-182.499-182.499s81.869-182.499 182.499-182.499 182.499 81.869 182.499 182.499c0 19.714-3.127 39.106-9.294 57.638-1.308 3.93-5.554 6.055-9.484 4.748-3.931-1.308-6.056-5.554-4.748-9.484 5.657-17.002 8.526-34.801 8.526-52.901 0-92.359-75.14-167.499-167.499-167.499s-167.499 75.139-167.499 167.498 75.14 167.499 167.499 167.499c61.752 0 118.312-33.813 147.604-88.243 1.962-3.647 6.51-5.014 10.159-3.05 3.647 1.963 5.013 6.511 3.05 10.158-31.913 59.298-93.532 96.135-160.813 96.135z"/><path d="m255.998 310.225c-15.14 0-27.456-12.316-27.456-27.455s12.316-27.456 27.456-27.456 27.456 12.317 27.456 27.456-12.316 27.455-27.456 27.455zm0-39.911c-6.868 0-12.456 5.588-12.456 12.456s5.588 12.455 12.456 12.455 12.456-5.588 12.456-12.455c0-6.868-5.588-12.456-12.456-12.456z"/><path d="m255.998 228.693c-21.005 0-38.093-17.089-38.093-38.093s17.089-38.093 38.093-38.093 38.093 17.089 38.093 38.093-17.088 38.093-38.093 38.093zm0-61.187c-12.734 0-23.094 10.36-23.094 23.094s10.359 23.094 23.094 23.094c12.734 0 23.094-10.36 23.094-23.094s-10.36-23.094-23.094-23.094z"/><path d="m255.998 413.034c-21.005 0-38.093-17.089-38.093-38.093 0-21.005 17.089-38.093 38.093-38.093s38.093 17.089 38.093 38.093c.001 21.004-17.088 38.093-38.093 38.093zm0-61.187c-12.734 0-23.094 10.36-23.094 23.094s10.359 23.094 23.094 23.094c12.734 0 23.094-10.36 23.094-23.094 0-12.735-10.36-23.094-23.094-23.094z"/><path d="m176.115 274.795c-6.602 0-13.115-1.731-18.985-5.12-8.812-5.088-15.115-13.302-17.749-23.131-2.634-9.828-1.282-20.094 3.806-28.906s13.302-15.115 23.131-17.749 20.095-1.282 28.906 3.806c8.812 5.088 15.115 13.302 17.749 23.13s1.282 20.094-3.806 28.906-13.302 15.115-23.131 17.749c-3.281.879-6.613 1.315-9.921 1.315zm.099-61.214c-2.006 0-4.024.264-6.015.797-5.958 1.597-10.938 5.418-14.022 10.76s-3.903 11.566-2.307 17.524c1.597 5.958 5.418 10.938 10.76 14.023 5.343 3.084 11.564 3.905 17.524 2.307 5.958-1.596 10.938-5.418 14.022-10.76s3.903-11.566 2.307-17.524c-1.597-5.958-5.418-10.938-10.76-14.023-3.558-2.054-7.508-3.104-11.509-3.104z"/><path d="m335.758 366.965c-6.602 0-13.115-1.731-18.985-5.12-8.812-5.088-15.115-13.302-17.749-23.13s-1.282-20.094 3.806-28.906 13.302-15.115 23.131-17.749 20.095-1.282 28.906 3.806c8.812 5.088 15.115 13.302 17.749 23.13 2.634 9.829 1.282 20.094-3.806 28.906s-13.302 15.115-23.131 17.749c-3.281.879-6.612 1.314-9.921 1.314zm.1-61.214c-2.007 0-4.025.264-6.016.797-5.958 1.596-10.938 5.418-14.022 10.76s-3.903 11.566-2.307 17.524c1.597 5.958 5.418 10.938 10.76 14.023 5.343 3.084 11.564 3.904 17.524 2.307 5.958-1.597 10.938-5.418 14.022-10.76s3.903-11.566 2.307-17.524c-1.597-5.958-5.418-10.938-10.76-14.023-3.558-2.054-7.507-3.104-11.508-3.104z"/><path d="m176.238 366.965c-3.309 0-6.639-.435-9.921-1.314-9.829-2.634-18.043-8.937-23.131-17.749s-6.439-19.078-3.806-28.906c2.634-9.828 8.936-18.043 17.749-23.13 8.81-5.087 19.075-6.44 28.906-3.806 9.829 2.634 18.043 8.937 23.131 17.749s6.439 19.078 3.806 28.906c-2.634 9.828-8.936 18.043-17.749 23.13-5.869 3.389-12.385 5.12-18.985 5.12zm-.1-61.214c-4.001 0-7.95 1.049-11.509 3.104-5.342 3.084-9.163 8.064-10.76 14.023-1.597 5.958-.777 12.182 2.307 17.524s8.064 9.163 14.022 10.76 12.183.777 17.524-2.307c5.342-3.084 9.163-8.064 10.76-14.023 1.597-5.958.777-12.182-2.307-17.524s-8.064-9.164-14.022-10.76c-1.988-.533-4.009-.797-6.015-.797z"/><path d="m335.881 274.795c-3.309 0-6.639-.435-9.921-1.314-9.829-2.634-18.043-8.937-23.131-17.749s-6.439-19.078-3.806-28.906c2.634-9.828 8.936-18.043 17.749-23.13 8.811-5.088 19.076-6.439 28.906-3.806 9.829 2.634 18.043 8.937 23.131 17.749s6.439 19.078 3.806 28.906c-2.634 9.829-8.936 18.043-17.749 23.131-5.869 3.387-12.383 5.119-18.985 5.119zm-.098-61.214c-4.002 0-7.951 1.049-11.51 3.104-5.342 3.084-9.163 8.064-10.76 14.023-1.597 5.958-.777 12.182 2.307 17.524s8.064 9.163 14.022 10.76c5.959 1.598 12.183.777 17.524-2.307 5.342-3.084 9.163-8.064 10.76-14.023 1.597-5.958.777-12.182-2.307-17.524s-8.064-9.163-14.022-10.76c-1.989-.533-4.009-.797-6.014-.797z"/><path d="m447.885 71.613c-1.919 0-3.839-.732-5.304-2.197-2.929-2.929-2.929-7.677 0-10.606l56.611-56.611c2.93-2.929 7.678-2.929 10.607 0s2.929 7.677 0 10.606l-56.611 56.611c-1.464 1.465-3.384 2.197-5.303 2.197z"/><path d="m414.565 54.26c-.94 0-1.896-.178-2.822-.554-3.837-1.56-5.683-5.936-4.122-9.773l15.962-39.257c1.56-3.837 5.934-5.683 9.772-4.123 3.837 1.56 5.683 5.936 4.122 9.773l-15.962 39.257c-1.183 2.912-3.989 4.677-6.95 4.677z"/><path d="m469.104 99.486c-3.128 0-6.046-1.972-7.103-5.099-1.327-3.924.777-8.18 4.701-9.507l35.391-11.971c3.927-1.327 8.181.778 9.508 4.701 1.327 3.924-.777 8.18-4.701 9.507l-35.391 11.971c-.798.27-1.608.398-2.405.398z"/><path d="m429.117 511.998h-346.238c-9.477 0-18.394-3.691-25.108-10.392-6.717-6.73-10.411-15.651-10.411-25.128 0-11.159 5.104-21.333 13.557-27.937-39.353-46.261-60.917-104.764-60.917-165.771 0-42.783 10.767-85.127 31.136-122.452 1.984-3.636 6.541-4.975 10.176-2.991 3.636 1.984 4.975 6.54 2.99 10.176-19.169 35.128-29.302 74.987-29.302 115.267 0 60.346 22.415 118.091 63.115 162.597 1.664 1.821 2.327 4.343 1.772 6.747s-2.256 4.381-4.55 5.288c-7.884 3.117-12.977 10.604-12.977 19.075 0 5.476 2.138 10.633 6.019 14.522 3.871 3.864 9.024 5.998 14.501 5.998h346.238c11.314 0 20.519-9.205 20.519-20.52 0-4.187-1.257-8.215-3.636-11.65-2.326-3.36-5.558-5.927-9.344-7.426-2.294-.908-3.994-2.885-4.549-5.289-.554-2.404.109-4.926 1.773-6.746 40.7-44.506 63.115-102.251 63.115-162.597 0-63.971-24.808-124.227-69.856-169.668-2.846-2.871-2.905-7.48-.134-10.422 1.722-1.828 2.67-4.207 2.67-6.698 0-5.404-4.392-9.8-9.79-9.8-2.946 0-5.712 1.313-7.588 3.603-2.559 3.125-7.133 3.663-10.349 1.212-42.245-32.203-92.715-49.224-145.952-49.224-39.045 0-77.817 9.551-112.126 27.619-33.218 17.495-62.33 42.934-84.187 73.566-2.406 3.371-7.087 4.155-10.462 1.749-3.371-2.406-4.154-7.09-1.749-10.461 23.211-32.529 54.128-59.545 89.408-78.126 36.455-19.199 77.645-29.347 119.115-29.347 54.48 0 106.236 16.785 150.083 48.603 4.036-2.711 8.816-4.194 13.806-4.194 13.669 0 24.79 11.125 24.79 24.8 0 3.864-.894 7.616-2.58 11.005 45.126 47.719 69.9 109.896 69.9 175.784 0 61.011-21.573 119.525-60.93 165.789 2.774 2.182 5.224 4.78 7.267 7.731 4.124 5.955 6.304 12.937 6.304 20.189 0 19.585-15.933 35.519-35.519 35.519z"/></svg>