<svg width="21589.999999999996" height="27940" xmlns="http://www.w3.org/2000/svg" preserveAspectRatio="xMidYMid">
 <defs>
  <path id="svg_1" fill="none" stroke="black" stroke-width="33" d="m0,2048l2047,0l0,-2047l-2047,0l0,2047z"/>
  <path id="svg_2" d="m393,170l705,0l0,-170l-948,0l0,170c77,79 181,186 314,320c132,133 215,219 249,258c65,73 110,134 136,185c25,50 38,99 38,148c0,79 -28,144 -83,194c-56,50 -129,75 -218,75c-63,0 -130,-11 -200,-33c-71,-22 -146,-55 -226,-100l0,204c81,33 157,57 228,74c71,17 135,25 194,25c155,0 278,-39 370,-116c92,-77 138,-181 138,-310c0,-61 -11,-119 -34,-174c-23,-55 -65,-120 -126,-195c-17,-19 -70,-75 -159,-167c-89,-93 -215,-222 -378,-388z"/>
  <path id="svg_3" d="m774,1317l-510,-797l510,0l0,797zm-53,176l254,0l0,-973l213,0l0,-168l-213,0l0,-352l-201,0l0,352l-674,0l0,195l621,946z"/>
  <path id="svg_4" d="m700,1294l-274,-743l549,0l-275,743zm-114,199l229,0l569,-1493l-210,0l-136,383l-673,0l-136,-383l-213,0l570,1493z"/>
  <path id="svg_5" d="m403,713l0,-547l324,0c109,0 189,23 242,68c52,45 78,113 78,206c0,93 -26,162 -78,207c-53,44 -133,66 -242,66l-324,0zm0,614l0,-450l299,0c99,0 172,19 221,56c48,37 72,93 72,169c0,75 -24,132 -72,169c-49,37 -122,56 -221,56l-299,0zm-202,166l516,0c154,0 273,-32 356,-96c83,-64 125,-155 125,-273c0,-91 -21,-164 -64,-218c-43,-54 -105,-88 -188,-101c99,-21 177,-66 232,-133c55,-68 82,-153 82,-254c0,-133 -45,-236 -136,-309c-91,-73 -220,-109 -387,-109l-536,0l0,1493z"/>
  <path id="svg_6" d="m1319,1378l0,-213c-68,63 -140,111 -217,142c-77,31 -159,47 -246,47c-171,0 -301,-52 -392,-156c-91,-105 -136,-256 -136,-453c0,-197 45,-347 136,-451c91,-105 221,-157 392,-157c87,0 169,16 246,47c77,31 149,79 217,142l0,-211c-71,-48 -145,-84 -224,-108c-79,-24 -163,-36 -251,-36c-226,0 -404,69 -534,208c-130,138 -195,327 -195,566c0,240 65,429 195,568c130,138 308,207 534,207c89,0 174,-12 253,-35c79,-24 153,-60 222,-107z"/>
  <path id="svg_7" d="m403,1327l0,-1161l244,0c206,0 357,47 453,140c95,93 143,241 143,442c0,200 -48,347 -143,440c-96,93 -247,139 -453,139l-244,0zm-202,166l415,0c289,0 502,-60 637,-180c135,-121 203,-309 203,-565c0,-257 -68,-446 -204,-567c-136,-121 -348,-181 -636,-181l-415,0l0,1493z"/>
  <path id="svg_8" d="m201,1493l944,0l0,-170l-742,0l0,-442l711,0l0,-170l-711,0l0,-541l760,0l0,-170l-962,0l0,1493z"/>
  <path id="svg_9" d="m1219,213l0,401l-330,0l0,166l530,0l0,-641c-78,-55 -164,-97 -258,-125c-94,-29 -194,-43 -301,-43c-233,0 -416,68 -547,205c-132,136 -198,326 -198,569c0,244 66,434 198,571c131,136 314,204 547,204c97,0 190,-12 278,-36c87,-24 168,-59 242,-106l0,-215c-75,63 -154,111 -238,143c-84,32 -172,48 -265,48c-183,0 -320,-51 -411,-153c-92,-102 -138,-254 -138,-456c0,-201 46,-353 138,-455c91,-102 228,-153 411,-153c71,0 135,6 191,19c56,12 106,31 151,57z"/>
  <path id="svg_10" d="m201,1493l202,0l0,-612l734,0l0,612l202,0l0,-1493l-202,0l0,711l-734,0l0,-711l-202,0l0,1493z"/>
  <path id="svg_11" d="m201,1493l202,0l0,-1493l-202,0l0,1493z"/>
  <path id="svg_12" d="m201,1493l202,0l0,-631l670,631l260,0l-741,-696l794,-797l-266,0l-717,719l0,-719l-202,0l0,1493z"/>
  <path id="svg_13" d="m201,1493l202,0l0,-1323l727,0l0,-170l-929,0l0,1493z"/>
  <path id="svg_14" d="m201,1493l301,0l381,-1016l383,1016l301,0l0,-1493l-197,0l0,1311l-385,-1024l-203,0l-385,1024l0,-1311l-196,0l0,1493z"/>
  <path id="svg_15" d="m201,1493l272,0l662,-1249l0,1249l196,0l0,-1493l-272,0l-662,1249l0,-1249l-196,0l0,1493z"/>
  <path id="svg_16" d="m807,1356c-147,0 -263,-55 -349,-164c-87,-109 -130,-258 -130,-447c0,-188 43,-337 130,-446c86,-109 202,-164 349,-164c147,0 263,55 349,164c85,109 128,258 128,446c0,189 -43,338 -128,447c-86,109 -202,164 -349,164zm0,164c209,0 377,-70 502,-210c125,-141 188,-329 188,-565c0,-235 -63,-423 -188,-563c-125,-141 -293,-211 -502,-211c-210,0 -378,70 -503,210c-126,140 -189,328 -189,564c0,236 63,424 189,565c125,140 293,210 503,210z"/>
  <path id="svg_17" d="m909,700c43,-15 86,-46 127,-94c41,-48 82,-114 123,-198l205,-408l-217,0l-191,383c-49,100 -97,166 -143,199c-47,33 -110,49 -190,49l-220,0l0,-631l-202,0l0,1493l456,0c171,0 298,-36 382,-107c84,-71 126,-179 126,-323c0,-94 -22,-172 -65,-234c-44,-62 -108,-105 -191,-129zm-506,627l0,-530l254,0c97,0 171,23 221,68c49,45 74,111 74,198c0,87 -25,153 -74,198c-50,44 -124,66 -221,66l-254,0z"/>
  <path id="svg_18" d="m1096,1444l0,-197c-77,37 -149,64 -217,82c-68,18 -134,27 -197,27c-110,0 -195,-21 -254,-64c-60,-43 -90,-103 -90,-182c0,-66 20,-116 60,-149c39,-34 114,-61 225,-82l122,-25c151,-29 262,-79 334,-151c71,-73 107,-170 107,-291c0,-145 -48,-254 -145,-329c-97,-75 -240,-112 -427,-112c-71,0 -146,8 -225,24c-80,16 -163,40 -248,71l0,208c82,-46 162,-81 241,-104c79,-23 156,-35 232,-35c115,0 204,23 267,68c63,45 94,110 94,194c0,73 -22,131 -67,172c-45,41 -119,72 -222,93l-123,24c-151,30 -260,77 -327,141c-67,64 -101,153 -101,267c0,132 47,236 140,312c93,76 221,114 384,114c70,0 141,-6 214,-19c73,-13 147,-32 223,-57z"/>
  <path id="svg_19" d="m-6,1493l1263,0l0,-170l-530,0l0,-1323l-203,0l0,1323l-530,0l0,170z"/>
  <path id="svg_20" d="m178,1493l203,0l0,-907c0,-160 29,-275 87,-345c58,-71 152,-106 282,-106c129,0 223,35 281,106c58,70 87,185 87,345l0,907l203,0l0,-932c0,-195 -48,-342 -144,-441c-97,-99 -239,-149 -427,-149c-189,0 -331,50 -427,149c-97,99 -145,246 -145,441l0,932z"/>
  <path id="svg_21" d="m586,0l-570,1493l211,0l473,-1257l474,1257l210,0l-569,-1493l-229,0z"/>
  <path id="svg_22" d="m-4,1493l217,0l414,-614l411,614l217,0l-528,-782l0,-711l-203,0l0,711l-528,782z"/>
 </defs>
 <g>
  <title>background</title>
  <rect fill="none" id="canvas_background" height="402" width="582" y="-1" x="-1"/>
 </g>
 <g>
  <title>Layer 1</title>
  <g id="Default">
   <desc>Master slide</desc>
  </g>
  <desc>Slide</desc>
  <g id="svg_23">
   <desc>Drawing</desc>
   <g id="svg_24">
    <g id="svg_25" fill="rgb(0,0,0)">
     <path id="svg_26" d="m10731,11522l-2526,-1703l1444,-2141l5052,3408l-1444,2140l-2526,-1704z"/>
    </g>
    <g id="svg_27" stroke="rgb(0,0,0)" fill="none">
     <path id="svg_28" fill="none" d="m10731,11522l-2526,-1703l1444,-2141l5052,3408l-1444,2140l-2526,-1704"/>
    </g>
    <g id="svg_29"/>
   </g>
  </g>
  <g id="svg_30">
   <desc>Drawing</desc>
   <g id="svg_31">
    <g id="svg_32" fill="rgb(0,0,0)">
     <path id="svg_33" d="m15091,12114l-670,994l-576,-751l335,-497l911,254z"/>
    </g>
    <g id="svg_34" stroke="rgb(0,0,0)" fill="none">
     <path id="svg_35" fill="none" d="m15091,12114l-670,994l-576,-751l335,-497l911,254"/>
    </g>
    <g id="svg_36"/>
   </g>
  </g>
  <g id="svg_37">
   <desc>Drawing</desc>
   <g id="svg_38">
    <g id="svg_39" fill="rgb(0,0,0)">
     <path id="svg_40" d="m10159,11009l1158,781l-170,253l-1159,-781l171,-253z"/>
    </g>
    <g id="svg_41"/>
   </g>
  </g>
  <g id="svg_42">
   <desc>Drawing</desc>
   <g id="svg_43">
    <g id="svg_44" fill="rgb(0,0,0)">
     <path id="svg_45" d="m9089,13430l1380,-2046l337,227l-1381,2046l-336,-227z"/>
    </g>
    <g id="svg_46"/>
   </g>
  </g>
  <g id="svg_47">
   <desc>Drawing</desc>
   <g id="svg_48">
    <g id="svg_49" fill="rgb(0,0,0)">
     <path id="svg_50" d="m9529,13606l0,-19l-2,-18l-2,-18l-3,-19l-5,-18l-5,-18l-6,-17l-7,-17l-7,-17l-9,-17l-9,-16l-11,-15l-11,-15l-11,-14l-13,-14l-13,-13l-14,-13l-14,-11l-15,-11l-15,-11l-16,-9l-17,-9l-17,-7l-17,-7l-17,-6l-18,-5l-18,-5l-19,-3l-18,-2l-18,-2l-19,0l0,0l-19,0l-18,2l-18,2l-19,3l-18,5l-18,5l-17,6l-17,7l-17,7l-17,9l-16,9l-15,11l-15,11l-14,11l-14,13l-13,13l-13,14l-11,14l-11,15l-11,15l-9,16l-9,17l-7,17l-7,17l-6,17l-5,18l-5,18l-3,19l-2,18l-2,18l0,19l0,0l0,19l2,18l2,18l3,19l5,18l5,18l6,17l7,17l7,17l9,17l9,16l11,15l11,15l11,14l13,14l13,13l14,13l14,11l15,11l15,11l16,9l17,9l17,7l17,7l17,6l18,5l18,5l19,3l18,2l18,2l19,0l0,0l19,0l18,-2l18,-2l19,-3l18,-5l18,-5l17,-6l17,-7l17,-7l17,-9l16,-9l15,-11l15,-11l14,-11l14,-13l13,-13l13,-14l11,-14l11,-15l11,-15l9,-16l9,-17l7,-17l7,-17l6,-17l5,-18l5,-18l3,-19l2,-18l2,-18l0,-19z"/>
    </g>
    <g id="svg_51" stroke="rgb(0,0,0)" fill="none">
     <path id="svg_52" fill="none" d="m9163,13972l-37,-2l-37,-5l-35,-9l-33,-13l-32,-15l-31,-18l-28,-21l-26,-24l-23,-26l-21,-28l-19,-30l-15,-32l-13,-34l-9,-35l-5,-36l-2,-37l2,-38l5,-36l9,-35l13,-34l15,-32l19,-30l21,-28l23,-26l26,-24l28,-21l31,-18l32,-15l33,-13l35,-9l37,-5l37,-2l37,2l37,5l35,9l33,13l32,15l31,18l28,21l26,24l23,26l21,28l19,30l15,32l13,34l9,35l5,36l2,38l-2,37l-5,36l-9,35l-13,34l-15,32l-19,30l-21,28l-23,26l-26,24l-28,21l-31,18l-32,15l-33,13l-35,9l-37,5l-37,2"/>
    </g>
    <g id="svg_53"/>
   </g>
  </g>
  <g id="svg_54">
   <desc>Drawing</desc>
   <g id="svg_55">
    <g id="svg_56" fill="rgb(0,0,0)">
     <path id="svg_57" d="m6638,13531l2215,0l0,381l-2215,0l0,-381z"/>
    </g>
    <g id="svg_58"/>
   </g>
  </g>
  <g id="svg_59">
   <desc>Drawing</desc>
   <g id="svg_60">
    <g id="svg_61" fill="rgb(0,0,0)">
     <path id="svg_62" d="m6685,13266l0,1015l-254,0l0,-1015l254,0z"/>
    </g>
    <g id="svg_63"/>
   </g>
  </g>
  <g id="svg_64">
   <desc>Drawing</desc>
   <g id="svg_65">
    <g id="svg_66" fill="rgb(0,0,0)">
     <path id="svg_67" d="m6548,12783l0,2030l-356,0l0,-2030l356,0z"/>
    </g>
    <g id="svg_68"/>
   </g>
  </g>
  <g id="svg_69">
   <desc>Drawing</desc>
   <g id="svg_70">
    <g id="svg_71" fill="rgb(0,0,0)">
     <path id="svg_72" d="m11364,1536l8891,15546l-529,303l-529,303l-8891,-15546l529,-303l529,-303z"/>
     <path id="svg_73" d="m19726,17385l529,-303l45,97l27,103l8,105l-9,106l-28,103l-45,96l-62,87l-75,75l-87,60l-97,45l-103,27l-103,9l0,-610z"/>
     <path id="svg_74" d="m19726,17995l-17781,0l0,-610l0,-609l17781,0l0,609l0,610z"/>
     <path id="svg_75" d="m1945,17385l0,610l-106,-10l-102,-27l-97,-45l-87,-61l-75,-75l-61,-87l-45,-97l-27,-102l-9,-106l9,-106l27,-102l44,-95l529,303z"/>
     <path id="svg_76" d="m1416,17082l8890,-15546l529,303l529,303l-8890,15546l-529,-303l-529,-303z"/>
     <path id="svg_77" d="m10835,1839l-529,-303l60,-87l75,-75l87,-62l96,-45l103,-28l105,-9l106,8l103,27l97,45l87,60l75,75l62,87l2,4l-529,303z"/>
    </g>
    <g id="svg_78"/>
   </g>
  </g>
 </g>
</svg>